<?xml version="1.0" standalone="no"?>
<!DOCTYPE svg PUBLIC "-//W3C//DTD SVG 20010904//EN"
 "http://www.w3.org/TR/2001/REC-SVG-20010904/DTD/svg10.dtd">
<svg version="1.0" xmlns="http://www.w3.org/2000/svg"
 width="1248.000000pt" height="703.000000pt" viewBox="0 0 1248.000000 703.000000"
 preserveAspectRatio="xMidYMid meet">
<metadata>
Created by potrace 1.16, written by Peter Selinger 2001-2019
</metadata>
<g transform="translate(0.000000,703.000000) scale(0.100000,-0.100000)"
fill="#000000" stroke="none">
<path d="M4014 4356 c-6 -16 -5 -18 101 -181 206 -317 215 -329 274 -359 26
-14 72 -16 335 -14 l305 3 -71 105 c-39 58 -105 159 -147 225 -116 184 -132
199 -236 221 -90 20 -554 19 -561 0z"/>
<path d="M5267 4313 c-4 -3 -7 -120 -7 -258 0 -286 -2 -278 77 -273 l48 3 3
88 3 87 57 0 c99 1 157 31 193 102 25 49 24 108 -2 155 -49 88 -83 102 -245
103 -66 0 -124 -3 -127 -7z m210 -114 c33 -12 43 -26 43 -58 0 -41 -27 -61
-82 -61 l-48 0 0 58 c0 32 3 62 7 65 10 10 48 8 80 -4z"/>
<path d="M5747 4313 c-9 -8 -9 -496 -1 -517 5 -14 28 -16 148 -16 77 0 147 4
154 9 9 5 12 25 10 57 l-3 49 -87 3 -88 3 0 44 0 45 78 0 c89 0 102 8 102 60
0 52 -13 60 -102 60 l-78 0 0 45 0 44 88 3 87 3 3 58 3 57 -154 0 c-84 0 -157
-3 -160 -7z"/>
<path d="M6177 4313 c-13 -12 -8 -508 5 -521 16 -16 90 -16 106 0 7 7 12 43
12 89 0 43 4 81 10 84 10 6 41 -35 93 -125 l32 -55 59 -3 c32 -2 65 -1 72 2
17 6 7 26 -58 117 -57 80 -60 102 -15 124 47 22 67 62 67 132 0 50 -4 64 -30
95 -43 52 -99 68 -235 68 -61 0 -115 -3 -118 -7z m221 -119 c16 -11 22 -25 22
-52 0 -48 -9 -60 -50 -72 -61 -17 -70 -8 -70 71 l0 69 38 0 c21 0 48 -7 60
-16z"/>
<path d="M6620 4260 l0 -60 55 0 55 0 0 -198 c0 -141 3 -201 12 -210 16 -16
110 -16 126 0 9 9 12 69 12 210 l0 198 55 0 55 0 0 60 0 60 -185 0 -185 0 0
-60z"/>
<path d="M7165 4308 c-2 -7 -18 -53 -35 -103 -33 -94 -76 -216 -89 -250 -23
-58 -50 -158 -45 -166 7 -11 94 -12 112 0 7 4 19 26 27 47 l13 39 109 3 108 3
14 -45 c7 -24 19 -47 28 -50 19 -8 108 -8 115 0 6 5 -5 45 -28 99 -7 17 -35
98 -63 180 -28 83 -59 173 -69 200 l-18 50 -87 3 c-64 2 -89 -1 -92 -10z m129
-196 c13 -42 26 -88 27 -102 4 -24 3 -25 -61 -25 -63 0 -65 1 -64 25 2 25 40
166 50 182 11 17 24 -5 48 -80z"/>
<path d="M7636 4298 c-5 -24 -6 -32 -26 -178 -6 -47 -15 -101 -20 -120 -5 -19
-13 -69 -18 -110 -5 -41 -11 -82 -13 -90 -5 -21 102 -27 119 -7 6 7 16 51 22
98 20 148 25 172 36 176 14 5 84 -193 84 -237 0 -24 32 -50 63 -50 30 0 47 23
67 90 7 25 19 64 26 88 8 23 14 48 14 55 0 17 23 67 32 67 9 0 25 -79 38 -185
6 -49 16 -95 22 -102 12 -15 86 -17 107 -4 9 6 12 20 8 42 -9 51 -34 221 -51
339 -23 161 -17 151 -95 148 l-66 -3 -18 -60 c-78 -258 -88 -272 -119 -175 -9
30 -30 96 -45 145 l-29 90 -66 3 c-63 3 -68 1 -72 -20z"/>
<path d="M8297 4314 c-13 -13 -8 -509 5 -522 17 -17 113 -15 127 2 8 9 11 88
9 267 l-3 254 -65 3 c-36 2 -69 0 -73 -4z"/>
<path d="M8572 4308 c-9 -9 -12 -80 -12 -258 0 -178 3 -249 12 -258 7 -7 33
-12 58 -12 25 0 51 5 58 12 8 8 12 58 12 159 0 81 3 150 8 153 4 2 62 -70 130
-160 l122 -164 54 0 c33 0 58 5 65 14 8 9 11 88 9 267 l-3 254 -67 3 -68 3 0
-168 -1 -168 -29 35 c-16 19 -60 77 -97 129 -37 51 -72 98 -78 105 -6 6 -19
23 -29 39 -16 24 -24 27 -75 27 -31 0 -62 -5 -69 -12z"/>
<path d="M9320 4274 c-11 -25 -23 -58 -26 -72 -4 -15 -9 -31 -13 -37 -14 -25
-128 -375 -123 -380 3 -3 29 -5 58 -5 58 0 75 14 89 73 l7 27 109 0 c96 0 110
-2 115 -17 3 -10 12 -33 20 -50 13 -31 16 -33 68 -33 30 0 57 4 60 9 5 7 -46
171 -73 236 -5 11 -16 45 -25 75 -10 30 -21 64 -26 75 -4 11 -18 48 -30 83
l-22 62 -85 0 -84 0 -19 -46z m135 -148 c15 -40 28 -89 28 -107 l2 -34 -62 -3
c-63 -3 -63 -3 -63 25 0 33 50 193 61 193 4 0 19 -33 34 -74z"/>
<path d="M3487 3612 c-10 -2 -15 -7 -13 -11 3 -4 -4 -8 -15 -8 -12 -1 -27 -7
-35 -14 -17 -14 -104 -137 -104 -147 0 -4 -10 -18 -23 -32 -13 -14 -32 -41
-43 -60 -10 -19 -36 -58 -56 -87 -21 -29 -38 -54 -38 -57 0 -3 -25 -42 -55
-88 -30 -45 -55 -88 -55 -95 0 -7 -5 -13 -11 -13 -6 0 -8 -9 -4 -22 4 -15 3
-19 -3 -10 -9 14 -18 2 -146 -196 -36 -56 -66 -105 -66 -107 0 -3 129 -5 286
-5 l285 0 55 27 c55 27 87 59 119 123 10 19 58 98 108 174 49 76 91 150 93
164 1 13 8 30 14 36 9 8 9 4 0 -14 -12 -23 -12 -24 3 -11 10 7 17 18 17 23 0
5 15 28 34 51 18 23 49 67 67 97 30 50 78 117 114 162 29 36 46 66 43 79 -2 8
2 13 8 12 7 -1 19 6 27 15 15 16 -2 17 -287 17 -166 0 -310 -1 -319 -3z"/>
<path d="M5252 3532 c-9 -7 -12 -54 -10 -203 l3 -194 44 -3 c27 -2 47 1 52 9
4 7 7 44 7 83 l-1 71 81 3 81 3 3 -83 3 -83 48 -3 47 -3 -2 203 -3 203 -24 3
c-12 2 -34 1 -47 -2 -21 -6 -23 -12 -26 -79 l-3 -72 -77 -3 c-58 -2 -78 0 -79
10 0 7 0 34 1 60 2 64 -13 88 -53 88 -18 0 -38 -4 -45 -8z"/>
<path d="M5737 3534 c-4 -4 -7 -76 -7 -159 0 -142 2 -154 23 -186 60 -89 264
-89 324 -1 15 22 18 54 21 184 l4 157 -26 7 c-14 3 -37 4 -49 0 -23 -5 -24 -9
-30 -152 -7 -169 -11 -179 -82 -179 -74 0 -79 12 -85 183 l-5 147 -40 3 c-23
2 -44 0 -48 -4z"/>
<path d="M6637 3534 c-4 -4 -7 -74 -7 -156 0 -152 4 -171 47 -216 40 -42 164
-54 237 -23 75 33 81 50 81 236 l0 160 -45 0 -45 0 -5 -145 c-3 -80 -9 -151
-14 -158 -24 -39 -116 -38 -138 1 -8 13 -15 77 -18 162 l-5 140 -40 3 c-23 2
-44 0 -48 -4z"/>
<path d="M7332 3532 c-9 -7 -12 -54 -10 -203 l3 -194 50 0 50 0 3 83 c2 45 6
82 11 82 37 0 76 -29 127 -96 l57 -74 53 0 c37 0 54 4 54 13 0 6 -27 45 -60
86 -57 71 -65 91 -35 91 8 0 26 12 40 27 36 39 35 102 -3 144 -23 26 -37 32
-97 39 -88 12 -226 12 -243 2z"/>
<path d="M7955 3536 c-5 -2 -22 -7 -36 -10 -33 -7 -98 -70 -116 -113 -31 -75
-9 -174 51 -235 80 -80 253 -74 334 12 86 90 56 273 -54 325 -35 16 -155 30
-179 21z m141 -110 c30 -30 34 -40 34 -85 0 -29 -7 -65 -15 -80 -14 -28 -68
-61 -100 -61 -33 0 -86 33 -102 63 -10 21 -14 47 -11 85 4 47 10 60 37 84 25
22 41 28 77 28 39 0 51 -5 80 -34z"/>
<path d="M8335 3528 c-3 -8 -4 -99 -3 -203 l3 -190 48 -3 47 -3 1 38 c1 70 8
94 31 113 13 11 28 19 35 20 7 0 37 -38 68 -85 l56 -85 60 0 c32 0 59 4 59 8
0 5 -36 58 -80 118 -44 60 -79 114 -78 120 2 7 35 40 73 75 39 35 70 68 70 74
0 5 -23 11 -52 13 -51 3 -52 2 -125 -64 -40 -37 -74 -71 -76 -75 -2 -5 -12 -9
-22 -9 -17 0 -20 9 -22 73 l-3 72 -43 3 c-28 2 -44 -1 -47 -10z"/>
<path d="M8954 3532 c-7 -4 -24 -35 -38 -70 -15 -34 -39 -91 -55 -125 -16 -34
-39 -87 -51 -117 -13 -30 -27 -59 -32 -65 -17 -19 -6 -25 47 -25 44 0 57 4 61
18 26 75 21 72 115 72 l86 0 19 -42 c18 -42 20 -43 72 -46 28 -2 52 1 52 6 0
9 -53 127 -167 370 -14 29 -20 32 -57 32 -22 0 -46 -4 -52 -8z"/>
<path d="M9312 3532 c-9 -7 -12 -54 -10 -203 l3 -194 45 0 45 0 5 109 c6 129
0 130 106 -19 l68 -96 45 3 46 3 0 200 c0 186 -1 200 -18 203 -10 2 -29 1 -43
-2 -24 -6 -24 -8 -24 -116 0 -81 -3 -110 -12 -110 -7 0 -32 28 -55 63 -79 116
-106 152 -117 159 -15 10 -68 10 -84 0z"/>
<path d="M6218 3358 c-2 -95 -2 -185 0 -200 l3 -28 160 0 159 0 0 40 0 40
-110 0 -110 0 0 160 0 160 -50 0 -49 0 -3 -172z"/>
</g>
</svg>
